<mxfile host="app.diagrams.net" modified="2023-12-30T10:33:26.922Z" agent="Mozilla/5.0 (Macintosh; Intel Mac OS X 10_15_7) AppleWebKit/605.1.15 (KHTML, like Gecko) Version/17.2.1 Safari/605.1.15" version="22.1.16" etag="n0_RN6cY0r8QPkJht__3" type="github">
  <diagram name="第 1 页" id="4WK8prquDSlBuQQoW6sq">
    <mxGraphModel>
      <root>
        <mxCell id="0" />
        <mxCell id="1" parent="0" />
      </root>
    </mxGraphModel>
  </diagram>
</mxfile>
